<svg width="237" height="53" viewBox="0 0 237 53" fill="none" xmlns="http://www.w3.org/2000/svg">
<rect x="130" width="107" height="53" rx="10" fill="#064789" fill-opacity="0.9"/>
<path d="M7.85938 6.875V41H4.97656V6.875H7.85938ZM19.6734 21.0547V41H16.8844V15.6406H19.5562L19.6734 21.0547ZM19.0406 26.75L17.7984 26.0469C17.8922 24.5469 18.1969 23.1406 18.7125 21.8281C19.2281 20.5156 19.9234 19.3594 20.7984 18.3594C21.6891 17.3594 22.7281 16.5781 23.9156 16.0156C25.1187 15.4531 26.4469 15.1719 27.9 15.1719C29.1656 15.1719 30.2984 15.3437 31.2984 15.6875C32.2984 16.0312 33.15 16.5781 33.8531 17.3281C34.5562 18.0781 35.0875 19.0391 35.4469 20.2109C35.8219 21.3828 36.0094 22.8125 36.0094 24.5V41H33.1969V24.4766C33.1969 22.7266 32.9547 21.3594 32.4703 20.375C31.9859 19.375 31.2984 18.6641 30.4078 18.2422C29.5172 17.8203 28.4625 17.6094 27.2437 17.6094C25.9 17.6094 24.7203 17.9062 23.7047 18.5C22.7047 19.0781 21.8609 19.8359 21.1734 20.7734C20.5016 21.6953 19.9859 22.6875 19.6266 23.75C19.2672 24.7969 19.0719 25.7969 19.0406 26.75ZM53.2609 15.6406V17.9375H40.5578V15.6406H53.2609ZM45.2219 9.125H48.0109V34.8359C48.0109 36.0078 48.1672 36.8906 48.4797 37.4844C48.7922 38.0781 49.1984 38.4766 49.6984 38.6797C50.1984 38.8828 50.7375 38.9844 51.3156 38.9844C51.7375 38.9844 52.1437 38.9609 52.5344 38.9141C52.925 38.8516 53.2766 38.7891 53.5891 38.7266L53.7062 41.0938C53.3625 41.2031 52.9172 41.2891 52.3703 41.3516C51.8234 41.4297 51.2766 41.4688 50.7297 41.4688C49.6516 41.4688 48.6984 41.2734 47.8703 40.8828C47.0422 40.4766 46.3937 39.7891 45.925 38.8203C45.4562 37.8359 45.2219 36.5 45.2219 34.8125V9.125ZM69.3406 41.4688C67.6844 41.4688 66.1609 41.1641 64.7703 40.5547C63.3953 39.9453 62.1922 39.0859 61.1609 37.9766C60.1453 36.8672 59.3563 35.5547 58.7938 34.0391C58.2469 32.5078 57.9734 30.8359 57.9734 29.0234V28.0156C57.9734 26.0625 58.2625 24.2969 58.8406 22.7188C59.4188 21.1406 60.2156 19.7891 61.2313 18.6641C62.2469 17.5391 63.4031 16.6797 64.7 16.0859C66.0125 15.4766 67.3875 15.1719 68.825 15.1719C70.4344 15.1719 71.8641 15.4609 73.1141 16.0391C74.3641 16.6016 75.4109 17.4062 76.2547 18.4531C77.1141 19.4844 77.7625 20.7109 78.2 22.1328C78.6375 23.5391 78.8563 25.0938 78.8563 26.7969V28.5078H59.6609V26.1172H76.0672V25.7891C76.0359 24.3672 75.7469 23.0391 75.2 21.8047C74.6688 20.5547 73.8719 19.5391 72.8094 18.7578C71.7469 17.9766 70.4188 17.5859 68.825 17.5859C67.6375 17.5859 66.5438 17.8359 65.5438 18.3359C64.5594 18.8359 63.7078 19.5547 62.9891 20.4922C62.2859 21.4141 61.7391 22.5156 61.3484 23.7969C60.9734 25.0625 60.7859 26.4688 60.7859 28.0156V29.0234C60.7859 30.4297 60.9891 31.7422 61.3953 32.9609C61.8172 34.1641 62.4109 35.2266 63.1766 36.1484C63.9578 37.0703 64.8797 37.7891 65.9422 38.3047C67.0047 38.8203 68.1766 39.0781 69.4578 39.0781C70.9578 39.0781 72.2859 38.8047 73.4422 38.2578C74.5984 37.6953 75.6375 36.8125 76.5594 35.6094L78.3172 36.9688C77.7703 37.7812 77.0828 38.5312 76.2547 39.2188C75.4422 39.9062 74.4656 40.4531 73.325 40.8594C72.1844 41.2656 70.8563 41.4688 69.3406 41.4688ZM87.5766 19.8359V41H84.7875V15.6406H87.5062L87.5766 19.8359ZM96.5531 15.4531L96.4828 18.0312C96.1703 17.9844 95.8656 17.9453 95.5687 17.9141C95.2719 17.8828 94.9516 17.8672 94.6078 17.8672C93.3891 17.8672 92.3187 18.0938 91.3969 18.5469C90.4906 18.9844 89.725 19.6016 89.1 20.3984C88.475 21.1797 87.9984 22.1016 87.6703 23.1641C87.3422 24.2109 87.1547 25.3359 87.1078 26.5391L86.0766 26.9375C86.0766 25.2812 86.2484 23.7422 86.5922 22.3203C86.9359 20.8984 87.4594 19.6562 88.1625 18.5938C88.8812 17.5156 89.7797 16.6797 90.8578 16.0859C91.9516 15.4766 93.2328 15.1719 94.7016 15.1719C95.0609 15.1719 95.4125 15.2031 95.7562 15.2656C96.1156 15.3125 96.3812 15.375 96.5531 15.4531ZM104.148 21.0547V41H101.359V15.6406H104.031L104.148 21.0547ZM103.516 26.75L102.273 26.0469C102.367 24.5469 102.672 23.1406 103.188 21.8281C103.703 20.5156 104.398 19.3594 105.273 18.3594C106.164 17.3594 107.203 16.5781 108.391 16.0156C109.594 15.4531 110.922 15.1719 112.375 15.1719C113.641 15.1719 114.773 15.3437 115.773 15.6875C116.773 16.0312 117.625 16.5781 118.328 17.3281C119.031 18.0781 119.562 19.0391 119.922 20.2109C120.297 21.3828 120.484 22.8125 120.484 24.5V41H117.672V24.4766C117.672 22.7266 117.43 21.3594 116.945 20.375C116.461 19.375 115.773 18.6641 114.883 18.2422C113.992 17.8203 112.938 17.6094 111.719 17.6094C110.375 17.6094 109.195 17.9062 108.18 18.5C107.18 19.0781 106.336 19.8359 105.648 20.7734C104.977 21.6953 104.461 22.6875 104.102 23.75C103.742 24.7969 103.547 25.7969 103.516 26.75Z" fill="black"/>
<path d="M160.238 32.6094C160.238 31.6719 160.081 30.8359 159.769 30.1016C159.456 29.3672 158.941 28.7109 158.222 28.1328C157.519 27.5391 156.566 26.9922 155.363 26.4922C154.175 25.9766 152.691 25.4688 150.909 24.9688C149.206 24.4844 147.667 23.9531 146.292 23.375C144.917 22.7969 143.738 22.1328 142.753 21.3828C141.784 20.6328 141.042 19.7578 140.527 18.7578C140.011 17.7422 139.753 16.5625 139.753 15.2188C139.753 13.9062 140.034 12.7109 140.597 11.6328C141.159 10.5547 141.948 9.625 142.964 8.84375C143.995 8.0625 145.206 7.46094 146.597 7.03906C148.003 6.61719 149.542 6.40625 151.214 6.40625C153.605 6.40625 155.667 6.85937 157.402 7.76562C159.152 8.67188 160.503 9.89844 161.456 11.4453C162.425 12.9766 162.909 14.6953 162.909 16.6016H160.027C160.027 15.1172 159.675 13.7969 158.972 12.6406C158.284 11.4688 157.284 10.5547 155.972 9.89844C154.675 9.22656 153.089 8.89062 151.214 8.89062C149.339 8.89062 147.761 9.17969 146.48 9.75781C145.214 10.3203 144.253 11.0781 143.597 12.0312C142.956 12.9688 142.636 14.0156 142.636 15.1719C142.636 15.9844 142.792 16.7344 143.105 17.4219C143.417 18.0938 143.925 18.7266 144.628 19.3203C145.347 19.8984 146.292 20.4453 147.464 20.9609C148.636 21.4609 150.081 21.9375 151.8 22.3906C153.613 22.8906 155.222 23.4453 156.628 24.0547C158.034 24.6641 159.222 25.3672 160.191 26.1641C161.159 26.9453 161.894 27.8594 162.394 28.9062C162.894 29.9531 163.144 31.1719 163.144 32.5625C163.144 33.9531 162.847 35.2031 162.253 36.3125C161.675 37.4062 160.855 38.3359 159.792 39.1016C158.745 39.8672 157.503 40.4531 156.066 40.8594C154.644 41.2656 153.089 41.4688 151.402 41.4688C149.886 41.4688 148.378 41.2734 146.878 40.8828C145.378 40.4922 144.003 39.8906 142.753 39.0781C141.519 38.25 140.527 37.1875 139.777 35.8906C139.042 34.5938 138.675 33.0469 138.675 31.25H141.534C141.534 32.6875 141.823 33.8984 142.402 34.8828C142.98 35.8672 143.745 36.6641 144.698 37.2734C145.667 37.8828 146.73 38.3281 147.886 38.6094C149.058 38.875 150.23 39.0078 151.402 39.0078C153.198 39.0078 154.753 38.7422 156.066 38.2109C157.394 37.6797 158.417 36.9375 159.136 35.9844C159.87 35.0156 160.238 33.8906 160.238 32.6094ZM171.911 5V41H169.122V5H171.911ZM171.278 26.75L170.036 26.0469C170.13 24.5469 170.434 23.1406 170.95 21.8281C171.466 20.5156 172.161 19.3594 173.036 18.3594C173.927 17.3594 174.966 16.5781 176.153 16.0156C177.356 15.4531 178.684 15.1719 180.137 15.1719C181.403 15.1719 182.536 15.3437 183.536 15.6875C184.536 16.0312 185.387 16.5781 186.091 17.3281C186.794 18.0781 187.325 19.0391 187.684 20.2109C188.059 21.3828 188.247 22.8125 188.247 24.5V41H185.434V24.4766C185.434 22.7266 185.192 21.3594 184.708 20.375C184.223 19.375 183.536 18.6641 182.645 18.2422C181.755 17.8203 180.7 17.6094 179.481 17.6094C178.137 17.6094 176.958 17.9062 175.942 18.5C174.942 19.0781 174.098 19.8359 173.411 20.7734C172.739 21.6953 172.223 22.6875 171.864 23.75C171.505 24.7969 171.309 25.7969 171.278 26.75ZM198.983 15.6406V41H196.194V15.6406H198.983ZM195.702 8.30469C195.702 7.77344 195.866 7.32812 196.194 6.96875C196.538 6.59375 197.006 6.40625 197.6 6.40625C198.194 6.40625 198.663 6.59375 199.006 6.96875C199.366 7.32812 199.545 7.77344 199.545 8.30469C199.545 8.82031 199.366 9.26562 199.006 9.64062C198.663 10 198.194 10.1797 197.6 10.1797C197.006 10.1797 196.538 10 196.194 9.64062C195.866 9.26562 195.702 8.82031 195.702 8.30469ZM209.812 20.5156V50.75H207V15.6406H209.625L209.812 20.5156ZM227.438 28.0859V28.5781C227.438 30.4688 227.219 32.2031 226.781 33.7812C226.344 35.3594 225.711 36.7266 224.883 37.8828C224.07 39.0234 223.062 39.9062 221.859 40.5312C220.656 41.1562 219.289 41.4688 217.758 41.4688C216.242 41.4688 214.891 41.2344 213.703 40.7656C212.516 40.2969 211.492 39.6328 210.633 38.7734C209.789 37.8984 209.109 36.8828 208.594 35.7266C208.094 34.5547 207.742 33.2734 207.539 31.8828V25.3906C207.773 23.8594 208.156 22.4688 208.688 21.2188C209.219 19.9688 209.898 18.8906 210.727 17.9844C211.57 17.0781 212.57 16.3828 213.727 15.8984C214.883 15.4141 216.203 15.1719 217.688 15.1719C219.234 15.1719 220.609 15.4766 221.812 16.0859C223.031 16.6797 224.055 17.5469 224.883 18.6875C225.727 19.8125 226.359 21.1719 226.781 22.7656C227.219 24.3438 227.438 26.1172 227.438 28.0859ZM224.625 28.5781V28.0859C224.625 26.6016 224.469 25.2266 224.156 23.9609C223.859 22.6953 223.398 21.5938 222.773 20.6562C222.164 19.7031 221.383 18.9609 220.43 18.4297C219.492 17.8984 218.375 17.6328 217.078 17.6328C215.734 17.6328 214.586 17.8594 213.633 18.3125C212.695 18.75 211.914 19.3359 211.289 20.0703C210.664 20.7891 210.172 21.5781 209.812 22.4375C209.453 23.2969 209.188 24.1406 209.016 24.9688V32.4453C209.312 33.6328 209.789 34.7344 210.445 35.75C211.102 36.75 211.977 37.5547 213.07 38.1641C214.18 38.7578 215.531 39.0547 217.125 39.0547C218.406 39.0547 219.516 38.7891 220.453 38.2578C221.391 37.7266 222.164 36.9844 222.773 36.0312C223.398 35.0781 223.859 33.9688 224.156 32.7031C224.469 31.4375 224.625 30.0625 224.625 28.5781Z" fill="white"/>
</svg>
